<?xml version="1.0" encoding="UTF-8"?> <!-- Generator: Adobe Illustrator 16.0.4, SVG Export Plug-In . SVG Version: 6.00 Build 0) --> <svg xmlns="http://www.w3.org/2000/svg" xmlns:xlink="http://www.w3.org/1999/xlink" version="1.1" id="Layer_1" x="0px" y="0px" width="86px" height="79px" viewBox="0 0 86 79" xml:space="preserve"> <g> <circle fill="#125CFF" cx="76.292" cy="39.5" r="9.5"></circle> <path fill="#125CFF" d="M75.5,0"></path> <circle fill="#125CFF" cx="44.5" cy="69.344" r="9.5"></circle> <g transform="translate(32 23)"> <path fill="#FFFFFF" d="M18.75,16.75c0,3.451-2.799,6.25-6.25,6.25c-3.452,0-6.25-2.799-6.25-6.25c0-3.452,2.798-6.25,6.25-6.25 C15.951,10.5,18.75,13.298,18.75,16.75"></path> <path d="M16,16.875c0,1.863-1.512,3.375-3.375,3.375c-1.864,0-3.375-1.512-3.375-3.375c0-1.864,1.511-3.375,3.375-3.375 C14.488,13.5,16,15.011,16,16.875"></path> <defs> <filter id="Adobe_OpacityMaskFilter" x="0" y="0.016" width="24.971" height="27.984"> <feColorMatrix type="matrix" values="1 0 0 0 0 0 1 0 0 0 0 0 1 0 0 0 0 0 1 0"></feColorMatrix> </filter> </defs> <mask maskUnits="userSpaceOnUse" x="0" y="0.016" width="24.971" height="27.984" id="webkey-standard-edition-b"> <g filter="url(#Adobe_OpacityMaskFilter)"> <polygon id="webkey-standard-edition-a" fill="#FFFFFF" points="0,0.016 24.971,0.016 24.971,28 0,28 "></polygon> </g> </mask> <path mask="url(#webkey-standard-edition-b)" fill="#20242E" d="M24.678,15.744L16.453,1.422 c-0.771-1.344-2.482-1.805-3.818-1.029c-1.338,0.776-1.796,2.495-1.023,3.839l0.83,1.445H9.638 C9.589,5.556,7.227,1.422,7.227,1.422c-0.772-1.344-2.482-1.805-3.82-1.029C2.069,1.169,1.611,2.888,2.383,4.232l2.238,3.896 c0.007,0.013,0.015,0.025,0.023,0.038l-4.353,7.577c-0.389,0.678-0.389,1.512,0,2.189l5.153,8.972C5.834,27.583,6.553,28,7.332,28 h10.307c0.777,0,1.497-0.417,1.886-1.095l5.153-8.972C25.067,17.256,25.067,16.422,24.678,15.744"></path> <path fill="#FFFFFF" d="M18.75,16.75c0,3.451-2.799,6.25-6.25,6.25c-3.452,0-6.25-2.799-6.25-6.25c0-3.452,2.798-6.25,6.25-6.25 C15.951,10.5,18.75,13.298,18.75,16.75"></path> <path fill="#20242E" d="M15.004,16.658c-1.193,0-2.16-0.967-2.16-2.16c0-0.348,0.082-0.676,0.229-0.968 c-0.146-0.02-0.295-0.03-0.447-0.03c-1.864,0-3.375,1.511-3.375,3.375c0,1.863,1.511,3.375,3.375,3.375 c1.863,0,3.375-1.512,3.375-3.375c0-0.151-0.011-0.299-0.03-0.445C15.679,16.576,15.351,16.658,15.004,16.658"></path> </g> </g> <path fill="#125CFF" d="M45.5,0.188c5.246,0,9.5,4.254,9.5,9.5s-4.254,9.5-9.5,9.5c-5.247,0-9.5-4.254-9.5-9.5 S40.253,0.188,45.5,0.188"></path> <path fill="#125CFF" d="M76.5,0.188"></path> <path fill="#125CFF" d="M76.5,0.188"></path> <circle fill="#125CFF" cx="9.719" cy="38.499" r="9.501"></circle> </svg> 