<?xml version="1.0" encoding="UTF-8"?> <svg xmlns="http://www.w3.org/2000/svg" viewBox="0 0 94.9 42"><path d="m26 42h-14c-1.8 0-3.4-1-4.3-2.5l-7-12.2c-.9-1.5-.9-3.4 0-5l5.3-9.2-2.5-4.4c-1.6-2.7-.6-6.3 2.1-7.9 1.4-.8 3-1 4.4-.6 1.5.4 2.7 1.4 3.5 2.7.7 1.3 1.3 2.2 1.7 3 0-2 1-4 2.9-5.1h.1c1.3-.8 2.9-.9 4.4-.5s2.7 1.4 3.5 2.7l11.2 19.4c.9 1.5.9 3.4 0 5l-7 12.2c-.9 1.4-2.5 2.4-4.3 2.4z" fill="#fff"></path><path d="m35.6 23.3-11.2-19.4c-1-1.8-3.4-2.4-5.2-1.4-1.8 1.1-2.4 3.4-1.4 5.2l1.1 2h-3.8c-.1-.2-3.3-5.8-3.3-5.8-1-1.8-3.4-2.4-5.2-1.4-1.8 1.1-2.4 3.4-1.4 5.2l3 5.3v.1l-5.8 10.2c-.5.9-.5 2.1 0 3l7 12.2c.5.9 1.5 1.5 2.6 1.5h14c1.1 0 2-.6 2.6-1.5l7-12.2c.5-.9.5-2 0-3" fill="#20242e"></path><path d="m28 24.5c0 4.7-3.8 8.5-8.5 8.5s-8.5-3.8-8.5-8.5 3.8-8.5 8.5-8.5 8.5 3.8 8.5 8.5" fill="#fff"></path><g fill="#20242e"><path d="m22.7 24.2c-1.6 0-2.9-1.3-2.9-2.9 0-.4.1-.9.3-1.3-2.5-.3-4.7 1.4-5.1 3.9s1.4 4.7 3.9 5.1 4.7-1.4 5.1-3.9c.1-.4.1-.8 0-1.2-.4.2-.9.3-1.3.3"></path><path d="m52.7 18.7-.7 10.3h-1.5l-1.3-3.5-1.3 3.5h-1.5l-.6-10.2h1.8l.4 6.1.8-1.9h.7l.8 2 .5-6.1c0-.2 1.9-.2 1.9-.2zm4.1 1.8v2.5h3v1.8h-3v2.5h3.8v1.7h-5.8v-10.3h5.8v1.8zm11.6 3.3c.7.5 1 1.2 1 2.2 0 1.9-1 3-3.2 3h-3.2v-10.3h3c2.2 0 3.2 1.1 3.2 3 0 .9-.3 1.6-.8 2.1zm-3.5-.7h1c.8 0 1.3-.3 1.3-1.1v-.3c0-.8-.5-1.1-1.3-1.1h-1c0-.1 0 2.5 0 2.5zm2.6 3v-.3c0-.8-.5-1.1-1.3-1.1h-1.3v2.6h1.3c.8-.1 1.3-.4 1.3-1.2zm10.4-6.5-2.1 4.2 2.1 4.2v1h-1.6l-2.1-4.3h-.8v4.3h-1.9v-10.3h1.9v4.2h.8l2-4.2h1.6zm4.3.9v2.5h3v1.8h-3v2.5h3.8v1.7h-5.8v-10.3h5.8v1.8zm12.7.3-2.2 4.3v3.9h-1.9v-3.8l-2.2-4.3v-2.1h1.9v1.7l1.3 2.7 1.3-2.7v-1.7h1.9c-.1-.1-.1 2-.1 2z"></path></g></svg> 