<?xml version="1.0" encoding="UTF-8"?> <svg xmlns="http://www.w3.org/2000/svg" xmlns:xlink="http://www.w3.org/1999/xlink" width="86" height="79" viewBox="0 0 86 79"><defs><polygon id="webkey-standard-edition-a" points="0 .016 24.97 .016 24.97 28 0 28"></polygon></defs><g fill="none" fill-rule="evenodd"><circle cx="76.5" cy="39.5" r="9.5" fill="#125CFF"></circle><circle cx="76.5" cy="9.5" r="9.5" fill="#125CFF"></circle><circle cx="9.5" cy="39.5" r="8.5" stroke="#125CFF" stroke-width="2"></circle><circle cx="9.5" cy="69.5" r="9.5" fill="#125CFF"></circle><circle cx="44.5" cy="69.5" r="9.5" fill="#125CFF"></circle><circle cx="76.5" cy="69.5" r="9.5" fill="#125CFF"></circle><g transform="translate(32 23)"><path fill="#FFF" d="M18.75,16.75 C18.75,20.2018051 15.9518051,23 12.5,23 C9.04819493,23 6.25,20.2018051 6.25,16.75 C6.25,13.2981949 9.04819493,10.5 12.5,10.5 C15.9518051,10.5 18.75,13.2981949 18.75,16.75"></path><path fill="#000" d="M16,16.875 C16,18.7389807 14.4889807,20.25 12.625,20.25 C10.7610643,20.25 9.25,18.7389807 9.25,16.875 C9.25,15.0110643 10.7610643,13.5 12.625,13.5 C14.4889807,13.5 16,15.0110643 16,16.875"></path><mask id="webkey-standard-edition-b" fill="#fff"><use xlink:href="#webkey-standard-edition-a"></use></mask><path fill="#20242E" d="M24.678125,15.7443865 L16.4537054,1.42184808 C15.6815179,0.0776237179 13.9713839,-0.382985256 12.6341071,0.393162179 C11.2966964,1.16921987 10.8384821,2.88812372 11.6106696,4.23234808 L12.4409821,5.67793782 L9.63830357,5.67793782 C9.58946429,5.55588654 7.22647321,1.42184808 7.22647321,1.42184808 C6.45415179,0.0776237179 4.74415179,-0.382985256 3.40678571,0.393162179 C2.069375,1.16926474 1.61120536,2.88812372 2.38334821,4.23234808 L4.62160714,8.12896987 C4.62897321,8.14180321 4.63674107,8.15432244 4.64428571,8.16697628 L0.291785714,15.7443865 C-0.0972767857,16.4217263 -0.0972767857,17.2562071 0.291785714,17.9335468 L5.4453125,26.9053929 C5.83433036,27.5827327 6.55334821,27.9999955 7.33147321,27.9999955 L17.6384821,27.9999955 C18.4165625,27.9999955 19.1355804,27.5827327 19.5246429,26.9053929 L24.678125,17.9335468 C25.0671875,17.2562071 25.0671875,16.4217263 24.678125,15.7443865" mask="url(#webkey-standard-edition-b)"></path><path fill="#FFF" d="M18.75,16.75 C18.75,20.2018051 15.9518051,23 12.5,23 C9.04819493,23 6.25,20.2018051 6.25,16.75 C6.25,13.2981949 9.04819493,10.5 12.5,10.5 C15.9518051,10.5 18.75,13.2981949 18.75,16.75"></path><path fill="#20242E" d="M15.0032611,16.6580738 C13.8103361,16.6580738 12.8432323,15.6910151 12.8432323,14.49809 C12.8432323,14.1500354 12.9260124,13.8215723 13.0722512,13.5304007 C12.9257872,13.5109893 12.7767109,13.5 12.6249775,13.5 C10.7610293,13.5 9.25,15.0110293 9.25,16.8749775 C9.25,18.7389707 10.7610293,20.25 12.6249775,20.25 C14.4889707,20.25 16,18.7389707 16,16.8749775 C16,16.7239196 15.9891008,16.5754739 15.9698245,16.4296855 C15.6789682,16.5755189 15.3508204,16.6580738 15.0032611,16.6580738"></path></g></g></svg> 