<?xml version="1.0" encoding="UTF-8"?> <svg xmlns="http://www.w3.org/2000/svg" width="94" height="40" viewBox="0 0 94 40"><g fill="none" fill-rule="evenodd"><path fill="#20242E" stroke="#FFF" stroke-width="2" d="M34.562 22.367L23.377 2.93a3.797 3.797 0 0 0-5.195-1.396 3.82 3.82 0 0 0-1.391 5.21l1.129 1.962h-3.812c-.066-.166-3.28-5.776-3.28-5.776a3.797 3.797 0 0 0-5.195-1.396 3.82 3.82 0 0 0-1.392 5.21l3.044 5.288.031.052-5.92 10.283c-.528.92-.528 2.052 0 2.971l7.01 12.176A2.96 2.96 0 0 0 10.97 39h14.017a2.96 2.96 0 0 0 2.566-1.486l7.008-12.176c.53-.919.53-2.051 0-2.97"></path><path fill="#FFF" d="M27 23.5a8.5 8.5 0 1 1-17 0 8.5 8.5 0 0 1 17 0"></path><path fill="#20242E" d="M21.671 23.21a2.88 2.88 0 0 1-2.575-4.17 4.5 4.5 0 1 0 3.863 3.866 2.867 2.867 0 0 1-1.288.305"></path><path fill="#FFF" fill-rule="nonzero" d="M51.664 17.76L51.024 28h-1.472l-1.312-3.536L46.928 28h-1.472l-.64-10.24h1.824l.448 6.08.816-1.936h.656l.816 1.968.464-6.112h1.824zm4.096 1.76V22h3.04v1.76h-3.04v2.48h3.84V28h-5.76V17.76h5.76v1.76h-3.84zm11.648 3.264c.672.464.992 1.2.992 2.176 0 1.904-1.024 3.04-3.2 3.04H62V17.76h2.96c2.176 0 3.2 1.136 3.2 3.04 0 .848-.24 1.52-.752 1.984zm-3.488-.704h1.04c.784 0 1.28-.304 1.28-1.12v-.32c0-.816-.496-1.12-1.28-1.12h-1.04v2.56zm2.56 3.04v-.32c0-.816-.496-1.12-1.28-1.12h-1.28v2.56h1.28c.784 0 1.28-.304 1.28-1.12zm10.4-6.48L74.8 22.8l2.08 4.16V28h-1.584l-2.112-4.32H72.4V28h-1.92V17.76h1.92v4.16h.8l2.032-4.16h1.648v.88zm4.352.88V22h3.04v1.76h-3.04v2.48h3.84V28h-5.76V17.76h5.76v1.76h-3.84zm12.64.32l-2.24 4.336V28h-1.92v-3.824l-2.24-4.336v-2.08h1.92v1.744l1.28 2.736 1.28-2.736V17.76h1.92v2.08z"></path></g></svg> 